<svg xmlns="http://www.w3.org/2000/svg" viewBox="0 0 80 80">
  <path d="M40 19.585938L6.5859375 53L15 61.414062L40 36.414062L65 61.414062L73.414062 53L40 19.585938 z M 40 22.414062L70.585938 53L65 58.585938L40 33.585938L39.292969 34.292969L15 58.585938L9.4140625 53L40 22.414062 z M 40 25 A 1 1 0 0 0 39 26 A 1 1 0 0 0 40 27 A 1 1 0 0 0 41 26 A 1 1 0 0 0 40 25 z M 37 28 A 1 1 0 0 0 36 29 A 1 1 0 0 0 37 30 A 1 1 0 0 0 38 29 A 1 1 0 0 0 37 28 z M 34 31 A 1 1 0 0 0 33 32 A 1 1 0 0 0 34 33 A 1 1 0 0 0 35 32 A 1 1 0 0 0 34 31 z M 44 33 A 1 1 0 0 0 43 34 A 1 1 0 0 0 44 35 A 1 1 0 0 0 45 34 A 1 1 0 0 0 44 33 z M 31 34 A 1 1 0 0 0 30 35 A 1 1 0 0 0 31 36 A 1 1 0 0 0 32 35 A 1 1 0 0 0 31 34 z M 47 36 A 1 1 0 0 0 46 37 A 1 1 0 0 0 47 38 A 1 1 0 0 0 48 37 A 1 1 0 0 0 47 36 z M 28 37 A 1 1 0 0 0 27 38 A 1 1 0 0 0 28 39 A 1 1 0 0 0 29 38 A 1 1 0 0 0 28 37 z M 50 39 A 1 1 0 0 0 49 40 A 1 1 0 0 0 50 41 A 1 1 0 0 0 51 40 A 1 1 0 0 0 50 39 z M 25 40 A 1 1 0 0 0 24 41 A 1 1 0 0 0 25 42 A 1 1 0 0 0 26 41 A 1 1 0 0 0 25 40 z M 53 42 A 1 1 0 0 0 52 43 A 1 1 0 0 0 53 44 A 1 1 0 0 0 54 43 A 1 1 0 0 0 53 42 z M 22 43 A 1 1 0 0 0 21 44 A 1 1 0 0 0 22 45 A 1 1 0 0 0 23 44 A 1 1 0 0 0 22 43 z M 56 45 A 1 1 0 0 0 55 46 A 1 1 0 0 0 56 47 A 1 1 0 0 0 57 46 A 1 1 0 0 0 56 45 z M 19 46 A 1 1 0 0 0 18 47 A 1 1 0 0 0 19 48 A 1 1 0 0 0 20 47 A 1 1 0 0 0 19 46 z M 59 48 A 1 1 0 0 0 58 49 A 1 1 0 0 0 59 50 A 1 1 0 0 0 60 49 A 1 1 0 0 0 59 48 z M 16 49 A 1 1 0 0 0 15 50 A 1 1 0 0 0 16 51 A 1 1 0 0 0 17 50 A 1 1 0 0 0 16 49 z M 62 51 A 1 1 0 0 0 61 52 A 1 1 0 0 0 62 53 A 1 1 0 0 0 63 52 A 1 1 0 0 0 62 51 z M 13 52 A 1 1 0 0 0 12 53 A 1 1 0 0 0 13 54 A 1 1 0 0 0 14 53 A 1 1 0 0 0 13 52 z M 65 54 A 1 1 0 0 0 64 55 A 1 1 0 0 0 65 56 A 1 1 0 0 0 66 55 A 1 1 0 0 0 65 54 z" fill="#FFFFFF" />
</svg>